<svg xmlns="http://www.w3.org/2000/svg" xmlns:xlink="http://www.w3.org/1999/xlink" width="18" height="14" viewBox="0 0 18 14">
  <defs>
    <style>
      .cls-1 {
        fill: #fff;
        fill-rule: evenodd;
        filter: url(#filter);
      }
    </style>
    <filter id="filter" x="327" y="412" width="18" height="14" filterUnits="userSpaceOnUse">
      <feFlood result="flood" flood-color="#fff"/>
      <feComposite result="composite" operator="in" in2="SourceGraphic"/>
      <feBlend result="blend" in2="SourceGraphic"/>
    </filter>
  </defs>
  <path id="Forma_1" data-name="Forma 1" class="cls-1" d="M337.146,413.716a0.985,0.985,0,0,1,0-1.426,1.058,1.058,0,0,1,1.454,0l6.095,5.978a1.02,1.02,0,0,1,0,1.455L338.6,425.7a1.033,1.033,0,0,1-1.454,0,0.987,0.987,0,0,1,0-1.427l4.364-4.266H328.018A1.013,1.013,0,0,1,327,419a1,1,0,0,1,1.018-1h13.491Z" transform="translate(-327 -412)"/>
</svg>
